<mxfile host="app.diagrams.net" agent="Mozilla/5.0 (Windows NT 10.0; Win64; x64) AppleWebKit/537.36 (KHTML, like Gecko) Chrome/131.0.0.0 Safari/537.36" version="25.0.3">
  <diagram name="Page-1" id="hVJuEHyrC3SgWOENO5Yt">
    <mxGraphModel dx="1050" dy="522" grid="1" gridSize="10" guides="1" tooltips="1" connect="1" arrows="1" fold="1" page="1" pageScale="1" pageWidth="827" pageHeight="1169" math="0" shadow="0">
      <root>
        <mxCell id="0" />
        <mxCell id="1" parent="0" />
        <mxCell id="_01E9grk78abJl4kMO7q-3" value="" style="edgeStyle=orthogonalEdgeStyle;rounded=0;orthogonalLoop=1;jettySize=auto;html=1;" edge="1" parent="1" source="_01E9grk78abJl4kMO7q-1" target="_01E9grk78abJl4kMO7q-2">
          <mxGeometry relative="1" as="geometry" />
        </mxCell>
        <mxCell id="_01E9grk78abJl4kMO7q-1" value="เริ่มต้น" style="ellipse;whiteSpace=wrap;html=1;" vertex="1" parent="1">
          <mxGeometry x="359" y="30" width="110" height="40" as="geometry" />
        </mxCell>
        <mxCell id="_01E9grk78abJl4kMO7q-5" value="" style="edgeStyle=orthogonalEdgeStyle;rounded=0;orthogonalLoop=1;jettySize=auto;html=1;" edge="1" parent="1" source="_01E9grk78abJl4kMO7q-2" target="_01E9grk78abJl4kMO7q-4">
          <mxGeometry relative="1" as="geometry" />
        </mxCell>
        <mxCell id="_01E9grk78abJl4kMO7q-2" value="รับค่า h" style="shape=parallelogram;perimeter=parallelogramPerimeter;whiteSpace=wrap;html=1;fixedSize=1;" vertex="1" parent="1">
          <mxGeometry x="339" y="120" width="150" height="40" as="geometry" />
        </mxCell>
        <mxCell id="_01E9grk78abJl4kMO7q-7" value="" style="edgeStyle=orthogonalEdgeStyle;rounded=0;orthogonalLoop=1;jettySize=auto;html=1;" edge="1" parent="1" source="_01E9grk78abJl4kMO7q-4" target="_01E9grk78abJl4kMO7q-6">
          <mxGeometry relative="1" as="geometry" />
        </mxCell>
        <mxCell id="_01E9grk78abJl4kMO7q-4" value="รับค่า w" style="shape=parallelogram;perimeter=parallelogramPerimeter;whiteSpace=wrap;html=1;fixedSize=1;" vertex="1" parent="1">
          <mxGeometry x="339" y="210" width="150" height="40" as="geometry" />
        </mxCell>
        <mxCell id="_01E9grk78abJl4kMO7q-9" value="" style="edgeStyle=orthogonalEdgeStyle;rounded=0;orthogonalLoop=1;jettySize=auto;html=1;" edge="1" parent="1" source="_01E9grk78abJl4kMO7q-6" target="_01E9grk78abJl4kMO7q-8">
          <mxGeometry relative="1" as="geometry" />
        </mxCell>
        <mxCell id="_01E9grk78abJl4kMO7q-6" value="x = ( h * w ) / 2" style="rounded=0;whiteSpace=wrap;html=1;" vertex="1" parent="1">
          <mxGeometry x="333.5" y="290" width="161" height="40" as="geometry" />
        </mxCell>
        <mxCell id="_01E9grk78abJl4kMO7q-11" value="" style="edgeStyle=orthogonalEdgeStyle;rounded=0;orthogonalLoop=1;jettySize=auto;html=1;" edge="1" parent="1" source="_01E9grk78abJl4kMO7q-8" target="_01E9grk78abJl4kMO7q-10">
          <mxGeometry relative="1" as="geometry" />
        </mxCell>
        <mxCell id="_01E9grk78abJl4kMO7q-8" value="แสดง x" style="shape=parallelogram;perimeter=parallelogramPerimeter;whiteSpace=wrap;html=1;fixedSize=1;" vertex="1" parent="1">
          <mxGeometry x="339" y="370" width="150" height="40" as="geometry" />
        </mxCell>
        <mxCell id="_01E9grk78abJl4kMO7q-10" value="จบ" style="ellipse;whiteSpace=wrap;html=1;" vertex="1" parent="1">
          <mxGeometry x="359" y="450" width="110" height="40" as="geometry" />
        </mxCell>
      </root>
    </mxGraphModel>
  </diagram>
</mxfile>
